Coordinates
version=1
nRows=13
nColumns=36
inDegrees=yes

Units are S.I. units (second, meters, Newtons, ...)
If the header above contains a line with 'inDegrees', this indicates whether rotational values are in degrees (yes) or radians (no).

endheader
time	pelvis_tilt	pelvis_list	pelvis_rotation	pelvis_tx	pelvis_ty	pelvis_tz	hip_flexion_r	hip_adduction_r	hip_rotation_r	knee_angle_r	knee_angle_r_beta	ankle_angle_r	subtalar_angle_r	mtp_angle_r	hip_flexion_l	hip_adduction_l	hip_rotation_l	knee_angle_l	knee_angle_l_beta	ankle_angle_l	subtalar_angle_l	mtp_angle_l	lumbar_extension	lumbar_bending	lumbar_rotation	arm_flex_r	arm_add_r	arm_rot_r	elbow_flex_r	pro_sup_r	arm_flex_l	arm_add_l	arm_rot_l	elbow_flex_l	pro_sup_l
      4.00000000	    -38.25533919	     -1.02434469	     -1.85766342	     -0.42591095	      0.80545001	     -0.59047216	     98.29687335	    -12.96163553	     -0.99863724	     80.99702833	      1.41366483	     26.63726952	     -2.04462274	     -7.49999987	     98.78235459	    -16.82924743	      3.26494130	     81.51967571	      1.42278675	     27.69915598	      1.26644300	     -7.49999987	    -45.70739015	     -0.15392419	     17.83506839	    108.30642417	    -21.83199506	     25.27367388	     89.34723075	     71.24251668	    113.24492178	      1.69124342	     27.39695703	     74.54103017	     84.00961067
      4.01000000	    -38.07946682	     -1.09856472	     -1.85178345	     -0.42797508	      0.80702104	     -0.58963763	     97.97535958	    -12.97625210	     -1.12925564	     80.82414866	      1.41064751	     26.53851600	     -2.22115246	     -7.49999987	     98.54081288	    -16.82906595	      3.31156374	     81.37083830	      1.42018904	     27.62322235	      1.21956231	     -7.49999987	    -45.97084997	     -0.12581319	     18.00581174	    108.90124442	    -21.96257156	     25.66674982	     89.28496464	     71.33749229	    114.07574203	      1.75624103	     27.81908552	     74.04920645	     84.09420938
      4.02000000	    -38.29125204	     -1.03081203	     -1.81527788	     -0.42857576	      0.80819903	     -0.58910906	     98.08382818	    -13.00367462	     -1.10273125	     80.64539577	      1.40752768	     26.56500504	     -2.21461517	     -7.49999987	     98.59881199	    -16.77680192	      3.20213062	     81.15807258	      1.41647558	     27.65292738	      1.24008125	     -7.49999987	    -45.43056207	     -0.05001456	     17.86319920	    108.39896293	    -21.55062432	     25.37221409	     88.99558459	     71.03603181	    113.70532222	      1.78241201	     27.52091111	     74.00509053	     83.61687948
      4.03000000	    -37.98107641	     -1.11109097	     -1.89143712	     -0.42747910	      0.81217420	     -0.59014074	     97.44771977	    -12.90570161	     -1.28767189	     80.21576079	      1.40002914	     26.34768939	     -2.16138083	     -7.49999987	     98.06686028	    -16.85080099	      3.21092023	     80.82451142	      1.41065384	     27.41140209	      1.24861278	     -7.49999987	    -45.75481075	     -0.01580769	     18.01211086	    108.42811004	    -21.68511299	     25.58756776	     89.07145558	     70.67444320	    113.93593876	      1.57233384	     27.99117602	     73.88352133	     82.58631783
      4.04000000	    -37.79441978	     -1.10426436	     -1.81550378	     -0.42672384	      0.81680810	     -0.59267983	     96.89712112	    -12.98294358	     -1.36797699	     79.67749500	      1.39063463	     26.04186610	     -2.15175564	     -7.49999987	     97.50560696	    -16.69714762	      3.10217973	     80.30849313	      1.40164762	     27.12723371	      1.12127589	     -7.49999987	    -45.64836762	     -0.00016569	     18.15333553	    107.57045964	    -21.99348913	     25.00068711	     89.21580608	     73.58933375	    113.50523041	      2.30455144	     27.35180365	     72.98474389	     87.06286777
      4.05000000	    -37.85456030	     -1.00360474	     -1.78134003	     -0.42789038	      0.82085317	     -0.59415861	     96.62353766	    -13.01238763	     -1.37195857	     79.11239984	      1.38077186	     25.86580833	     -2.15555466	     -7.49999987	     97.14978371	    -16.57735640	      2.89126901	     79.75256857	      1.39194491	     26.95489710	      0.96989522	     -7.49999987	    -45.14593506	      0.13227018	     17.89810765	    106.63223342	    -21.41691261	     24.61888695	     88.76677889	     72.99346598	    112.78005332	      2.28695308	     26.95253095	     72.89556889	     86.15015503
      4.06000000	    -37.56899931	     -1.21851165	     -1.80193493	     -0.43004683	      0.82566698	     -0.59411735	     95.86818031	    -12.97011768	     -1.72386869	     78.50589205	      1.37018630	     25.54298829	     -2.08018663	     -7.49999987	     96.63687891	    -16.55451949	      3.00275647	     79.26713069	      1.38347242	     26.60655817	      1.01484862	     -7.49999987	    -45.43991152	      0.28956864	     17.93998263	    106.86650634	    -21.20746967	     24.51037542	     88.48265999	     72.86082941	    113.58855796	      2.19334281	     27.30265712	     72.01330725	     85.90409884
      4.07000000	    -37.62051899	     -1.19248829	     -1.79455848	     -0.43088453	      0.83021191	     -0.59453248	     95.52030849	    -12.96280550	     -1.83923094	     77.87829553	      1.35923267	     25.28829654	     -1.97503120	     -7.49999987	     96.31047291	    -16.46174922	      2.87343757	     78.69401591	      1.37346968	     26.34088000	      1.06371646	     -7.49999987	    -45.08758814	      0.37388172	     17.80277147	    106.47385915	    -21.00318228	     24.20069547	     88.18615358	     72.52396931	    113.33275343	      2.09854690	     27.11568686	     71.85475554	     85.35773052
      4.08000000	    -37.35691738	     -1.18999561	     -1.80019056	     -0.42958783	      0.83621154	     -0.59686978	     94.67480491	    -12.94324758	     -1.98798935	     77.03784690	      1.34456408	     25.03347829	     -1.89716552	     -7.49999987	     95.49538723	    -16.37185838	      2.71956395	     77.95300448	      1.36053659	     26.09670161	      1.01757504	     -7.49999987	    -45.09693959	      0.46222603	     17.84029240	    106.15417895	    -21.24084007	     23.98252716	     88.16743234	     72.23789281	    112.95833965	      2.05487055	     27.20601210	     71.75287196	     84.79022119
      4.09000000	    -37.10418106	     -1.10121048	     -1.80084125	     -0.42629556	      0.84342596	     -0.59985388	     93.70382056	    -12.92106305	     -2.04680895	     76.01186155	      1.32665725	     24.66545680	     -1.86403787	     -7.49999987	     94.45754293	    -16.21977986	      2.47607169	     76.98563232	      1.34365276	     25.77357022	      0.79229735	     -7.49999987	    -44.94676960	      0.48565625	     18.02425861	    105.38029772	    -21.83748115	     23.60831092	     88.33864585	     72.49917828	    111.99953042	      2.57791436	     26.68656798	     71.45582039	     85.38309324
      4.10000000	    -36.80686736	     -1.02291608	     -1.81675553	     -0.42165917	      0.85094294	     -0.60202316	     92.57133013	    -12.90070342	     -2.16261006	     74.89795370	      1.30721590	     24.35938621	     -1.71099960	     -7.49999987	     93.28979925	    -16.08465890	      2.21036993	     75.97124773	      1.32594841	     25.65979500	      0.78346106	     -7.49999987	    -44.84509130	      0.61532132	     18.04974862	    104.67993117	    -22.19587366	     23.52089927	     88.37667812	     72.52478186	    111.04424971	      2.58700033	     26.70774835	     71.42177716	     85.51904087
      4.11000000	    -36.50366834	     -0.96309710	     -1.87835878	     -0.41735222	      0.85769292	     -0.60346134	     91.38017621	    -12.83093057	     -2.29551768	     73.74857041	      1.28715537	     24.04808326	     -1.68913307	     -7.49999987	     92.10185358	    -15.97105786	      1.97501710	     74.96622172	      1.30840740	     25.52788105	      0.58337486	     -7.49999987	    -44.74540414	      0.60063632	     18.52759922	    103.98216109	    -23.06070930	     22.98809772	     88.80927527	     72.54309457	    110.02288272	      3.76876423	     25.43334801	     70.81951734	     87.02792369
      4.12000000	    -36.14655472	     -0.90027365	     -1.92095590	     -0.41550115	      0.86480715	     -0.60440159	     90.12715401	    -12.78406000	     -2.43091406	     72.58820724	      1.26690321	     23.68549410	     -1.61225665	     -7.49999987	     90.84261932	    -15.85239837	      1.71607608	     73.91437242	      1.29004916	     25.35410558	      0.43611089	     -7.49999987	    -44.70631174	      0.70236956	     18.49773693	    103.46872124	    -23.12674958	     22.78613536	     88.68817219	     72.41837667	    109.31483271	      3.94589192	     25.00428929	     70.62691766	     88.58149351
